<mxfile host="Electron" modified="2023-08-20T17:20:04.128Z" agent="Mozilla/5.0 (X11; Linux x86_64) AppleWebKit/537.36 (KHTML, like Gecko) draw.io/21.3.7 Chrome/112.0.5615.204 Electron/24.5.0 Safari/537.36" etag="18ImBHy4tFn42f5PHXZH" version="21.3.7" type="device">
  <diagram name="PÃ¡gina-1" id="zwIt4ZT9LlGdYYxH_q5l">
    <mxGraphModel dx="1467" dy="878" grid="1" gridSize="10" guides="1" tooltips="1" connect="1" arrows="1" fold="1" page="1" pageScale="1" pageWidth="1169" pageHeight="827" math="0" shadow="0">
      <root>
        <mxCell id="0" />
        <mxCell id="1" parent="0" />
        <mxCell id="vZ2Ym8V51Z4fnAsbYTrX-13" value="" style="group" vertex="1" connectable="0" parent="1">
          <mxGeometry x="880" y="480" width="160" height="80" as="geometry" />
        </mxCell>
        <mxCell id="vZ2Ym8V51Z4fnAsbYTrX-1" value="" style="rounded=1;whiteSpace=wrap;html=1;fillColor=#BFBFBF;fontColor=#333333;strokeColor=#666666;container=0;" vertex="1" parent="vZ2Ym8V51Z4fnAsbYTrX-13">
          <mxGeometry width="160" height="80" as="geometry" />
        </mxCell>
        <mxCell id="vZ2Ym8V51Z4fnAsbYTrX-4" value="" style="endArrow=none;html=1;rounded=0;entryX=0.5;entryY=0;entryDx=0;entryDy=0;exitX=0.5;exitY=1;exitDx=0;exitDy=0;fillColor=#f5f5f5;strokeColor=#666666;" edge="1" parent="vZ2Ym8V51Z4fnAsbYTrX-13" source="vZ2Ym8V51Z4fnAsbYTrX-1" target="vZ2Ym8V51Z4fnAsbYTrX-1">
          <mxGeometry width="50" height="50" relative="1" as="geometry">
            <mxPoint x="10" y="440" as="sourcePoint" />
            <mxPoint x="60" y="390" as="targetPoint" />
          </mxGeometry>
        </mxCell>
        <mxCell id="vZ2Ym8V51Z4fnAsbYTrX-5" value="" style="ellipse;whiteSpace=wrap;html=1;aspect=fixed;fillColor=#000000;container=0;" vertex="1" parent="vZ2Ym8V51Z4fnAsbYTrX-13">
          <mxGeometry x="36" y="35" width="10" height="10" as="geometry" />
        </mxCell>
        <mxCell id="vZ2Ym8V51Z4fnAsbYTrX-72" value="" style="endArrow=none;html=1;rounded=0;exitX=0.5;exitY=1;exitDx=0;exitDy=0;entryX=0.972;entryY=0.063;entryDx=0;entryDy=0;entryPerimeter=0;strokeWidth=1;strokeColor=#7D7D7D;" edge="1" parent="vZ2Ym8V51Z4fnAsbYTrX-13">
          <mxGeometry width="50" height="50" relative="1" as="geometry">
            <mxPoint x="80" y="80" as="sourcePoint" />
            <mxPoint x="156" y="5" as="targetPoint" />
          </mxGeometry>
        </mxCell>
        <mxCell id="vZ2Ym8V51Z4fnAsbYTrX-14" value="" style="group" vertex="1" connectable="0" parent="1">
          <mxGeometry x="640" y="480" width="160" height="80" as="geometry" />
        </mxCell>
        <mxCell id="vZ2Ym8V51Z4fnAsbYTrX-15" value="" style="rounded=1;whiteSpace=wrap;html=1;fillColor=#BFBFBF;fontColor=#333333;strokeColor=#666666;container=0;" vertex="1" parent="vZ2Ym8V51Z4fnAsbYTrX-14">
          <mxGeometry width="160" height="80" as="geometry" />
        </mxCell>
        <mxCell id="vZ2Ym8V51Z4fnAsbYTrX-16" value="" style="endArrow=none;html=1;rounded=0;entryX=0.5;entryY=0;entryDx=0;entryDy=0;exitX=0.5;exitY=1;exitDx=0;exitDy=0;fillColor=#f5f5f5;strokeColor=#666666;" edge="1" parent="vZ2Ym8V51Z4fnAsbYTrX-14" source="vZ2Ym8V51Z4fnAsbYTrX-15" target="vZ2Ym8V51Z4fnAsbYTrX-15">
          <mxGeometry width="50" height="50" relative="1" as="geometry">
            <mxPoint x="10" y="440" as="sourcePoint" />
            <mxPoint x="60" y="390" as="targetPoint" />
          </mxGeometry>
        </mxCell>
        <mxCell id="vZ2Ym8V51Z4fnAsbYTrX-17" value="" style="ellipse;whiteSpace=wrap;html=1;aspect=fixed;fillColor=#000000;container=0;" vertex="1" parent="vZ2Ym8V51Z4fnAsbYTrX-14">
          <mxGeometry x="36" y="35" width="10" height="10" as="geometry" />
        </mxCell>
        <mxCell id="vZ2Ym8V51Z4fnAsbYTrX-18" value="" style="ellipse;whiteSpace=wrap;html=1;aspect=fixed;fillColor=#000000;" vertex="1" parent="vZ2Ym8V51Z4fnAsbYTrX-14">
          <mxGeometry x="116" y="35" width="10" height="10" as="geometry" />
        </mxCell>
        <mxCell id="vZ2Ym8V51Z4fnAsbYTrX-19" value="" style="group" vertex="1" connectable="0" parent="1">
          <mxGeometry x="640" y="320" width="160" height="80" as="geometry" />
        </mxCell>
        <mxCell id="vZ2Ym8V51Z4fnAsbYTrX-20" value="" style="rounded=1;whiteSpace=wrap;html=1;fillColor=#BFBFBF;fontColor=#333333;strokeColor=#666666;container=0;" vertex="1" parent="vZ2Ym8V51Z4fnAsbYTrX-19">
          <mxGeometry width="160" height="80" as="geometry" />
        </mxCell>
        <mxCell id="vZ2Ym8V51Z4fnAsbYTrX-21" value="" style="endArrow=none;html=1;rounded=0;entryX=0.5;entryY=0;entryDx=0;entryDy=0;exitX=0.5;exitY=1;exitDx=0;exitDy=0;fillColor=#f5f5f5;strokeColor=#666666;" edge="1" parent="vZ2Ym8V51Z4fnAsbYTrX-19" source="vZ2Ym8V51Z4fnAsbYTrX-20" target="vZ2Ym8V51Z4fnAsbYTrX-20">
          <mxGeometry width="50" height="50" relative="1" as="geometry">
            <mxPoint x="10" y="440" as="sourcePoint" />
            <mxPoint x="60" y="390" as="targetPoint" />
          </mxGeometry>
        </mxCell>
        <mxCell id="vZ2Ym8V51Z4fnAsbYTrX-22" value="" style="ellipse;whiteSpace=wrap;html=1;aspect=fixed;fillColor=#000000;container=0;" vertex="1" parent="vZ2Ym8V51Z4fnAsbYTrX-19">
          <mxGeometry x="36" y="35" width="10" height="10" as="geometry" />
        </mxCell>
        <mxCell id="vZ2Ym8V51Z4fnAsbYTrX-68" value="" style="endArrow=none;html=1;rounded=0;exitX=0.5;exitY=1;exitDx=0;exitDy=0;entryX=0.972;entryY=0.063;entryDx=0;entryDy=0;entryPerimeter=0;strokeWidth=1;strokeColor=#7D7D7D;" edge="1" parent="vZ2Ym8V51Z4fnAsbYTrX-19">
          <mxGeometry width="50" height="50" relative="1" as="geometry">
            <mxPoint x="80" y="80" as="sourcePoint" />
            <mxPoint x="156" y="5" as="targetPoint" />
          </mxGeometry>
        </mxCell>
        <mxCell id="vZ2Ym8V51Z4fnAsbYTrX-24" value="" style="group" vertex="1" connectable="0" parent="1">
          <mxGeometry x="160" y="160" width="160" height="80" as="geometry" />
        </mxCell>
        <mxCell id="vZ2Ym8V51Z4fnAsbYTrX-25" value="" style="rounded=1;whiteSpace=wrap;html=1;fillColor=#BFBFBF;fontColor=#333333;strokeColor=#666666;container=0;" vertex="1" parent="vZ2Ym8V51Z4fnAsbYTrX-24">
          <mxGeometry width="160" height="80" as="geometry" />
        </mxCell>
        <mxCell id="vZ2Ym8V51Z4fnAsbYTrX-26" value="" style="endArrow=none;html=1;rounded=0;entryX=0.5;entryY=0;entryDx=0;entryDy=0;exitX=0.5;exitY=1;exitDx=0;exitDy=0;fillColor=#f5f5f5;strokeColor=#666666;" edge="1" parent="vZ2Ym8V51Z4fnAsbYTrX-24" source="vZ2Ym8V51Z4fnAsbYTrX-25" target="vZ2Ym8V51Z4fnAsbYTrX-25">
          <mxGeometry width="50" height="50" relative="1" as="geometry">
            <mxPoint x="10" y="440" as="sourcePoint" />
            <mxPoint x="60" y="390" as="targetPoint" />
          </mxGeometry>
        </mxCell>
        <mxCell id="vZ2Ym8V51Z4fnAsbYTrX-39" style="edgeStyle=orthogonalEdgeStyle;rounded=0;orthogonalLoop=1;jettySize=auto;html=1;" edge="1" parent="vZ2Ym8V51Z4fnAsbYTrX-24" source="vZ2Ym8V51Z4fnAsbYTrX-27">
          <mxGeometry relative="1" as="geometry">
            <mxPoint x="41" y="160" as="targetPoint" />
          </mxGeometry>
        </mxCell>
        <mxCell id="vZ2Ym8V51Z4fnAsbYTrX-27" value="" style="ellipse;whiteSpace=wrap;html=1;aspect=fixed;fillColor=#000000;container=0;" vertex="1" parent="vZ2Ym8V51Z4fnAsbYTrX-24">
          <mxGeometry x="36" y="35" width="10" height="10" as="geometry" />
        </mxCell>
        <mxCell id="vZ2Ym8V51Z4fnAsbYTrX-28" value="" style="ellipse;whiteSpace=wrap;html=1;aspect=fixed;fillColor=#000000;" vertex="1" parent="vZ2Ym8V51Z4fnAsbYTrX-24">
          <mxGeometry x="116" y="35" width="10" height="10" as="geometry" />
        </mxCell>
        <mxCell id="vZ2Ym8V51Z4fnAsbYTrX-29" value="" style="group" vertex="1" connectable="0" parent="1">
          <mxGeometry x="400" y="160" width="160" height="80" as="geometry" />
        </mxCell>
        <mxCell id="vZ2Ym8V51Z4fnAsbYTrX-30" value="" style="rounded=1;whiteSpace=wrap;html=1;fillColor=#BFBFBF;fontColor=#333333;strokeColor=#666666;container=0;" vertex="1" parent="vZ2Ym8V51Z4fnAsbYTrX-29">
          <mxGeometry width="160" height="80" as="geometry" />
        </mxCell>
        <mxCell id="vZ2Ym8V51Z4fnAsbYTrX-31" value="" style="endArrow=none;html=1;rounded=0;entryX=0.5;entryY=0;entryDx=0;entryDy=0;exitX=0.5;exitY=1;exitDx=0;exitDy=0;fillColor=#f5f5f5;strokeColor=#666666;" edge="1" parent="vZ2Ym8V51Z4fnAsbYTrX-29" source="vZ2Ym8V51Z4fnAsbYTrX-30" target="vZ2Ym8V51Z4fnAsbYTrX-30">
          <mxGeometry width="50" height="50" relative="1" as="geometry">
            <mxPoint x="10" y="440" as="sourcePoint" />
            <mxPoint x="60" y="390" as="targetPoint" />
          </mxGeometry>
        </mxCell>
        <mxCell id="vZ2Ym8V51Z4fnAsbYTrX-32" value="" style="ellipse;whiteSpace=wrap;html=1;aspect=fixed;fillColor=#000000;container=0;" vertex="1" parent="vZ2Ym8V51Z4fnAsbYTrX-29">
          <mxGeometry x="36" y="35" width="10" height="10" as="geometry" />
        </mxCell>
        <mxCell id="vZ2Ym8V51Z4fnAsbYTrX-56" value="" style="endArrow=none;html=1;rounded=0;exitX=0.5;exitY=1;exitDx=0;exitDy=0;entryX=0.972;entryY=0.063;entryDx=0;entryDy=0;entryPerimeter=0;strokeWidth=1;strokeColor=#7D7D7D;" edge="1" parent="vZ2Ym8V51Z4fnAsbYTrX-29" source="vZ2Ym8V51Z4fnAsbYTrX-30" target="vZ2Ym8V51Z4fnAsbYTrX-30">
          <mxGeometry width="50" height="50" relative="1" as="geometry">
            <mxPoint x="240" y="90" as="sourcePoint" />
            <mxPoint x="290" y="40" as="targetPoint" />
          </mxGeometry>
        </mxCell>
        <mxCell id="vZ2Ym8V51Z4fnAsbYTrX-35" value="" style="endArrow=classic;html=1;rounded=0;exitX=1;exitY=0.5;exitDx=0;exitDy=0;entryX=0;entryY=0.5;entryDx=0;entryDy=0;" edge="1" parent="1" source="vZ2Ym8V51Z4fnAsbYTrX-28" target="vZ2Ym8V51Z4fnAsbYTrX-30">
          <mxGeometry width="50" height="50" relative="1" as="geometry">
            <mxPoint x="380" y="400" as="sourcePoint" />
            <mxPoint x="430" y="350" as="targetPoint" />
          </mxGeometry>
        </mxCell>
        <mxCell id="vZ2Ym8V51Z4fnAsbYTrX-38" value="" style="group" vertex="1" connectable="0" parent="1">
          <mxGeometry x="160" y="320" width="80" height="80" as="geometry" />
        </mxCell>
        <mxCell id="vZ2Ym8V51Z4fnAsbYTrX-36" value="" style="rounded=1;whiteSpace=wrap;html=1;" vertex="1" parent="vZ2Ym8V51Z4fnAsbYTrX-38">
          <mxGeometry width="80" height="80" as="geometry" />
        </mxCell>
        <mxCell id="vZ2Ym8V51Z4fnAsbYTrX-37" value="&lt;font style=&quot;font-size: 24px;&quot;&gt;1&lt;/font&gt;" style="text;html=1;strokeColor=none;fillColor=none;align=center;verticalAlign=middle;whiteSpace=wrap;rounded=0;" vertex="1" parent="vZ2Ym8V51Z4fnAsbYTrX-38">
          <mxGeometry x="10" y="25" width="60" height="30" as="geometry" />
        </mxCell>
        <mxCell id="vZ2Ym8V51Z4fnAsbYTrX-40" value="" style="group" vertex="1" connectable="0" parent="1">
          <mxGeometry x="400" y="480" width="80" height="80" as="geometry" />
        </mxCell>
        <mxCell id="vZ2Ym8V51Z4fnAsbYTrX-41" value="" style="rounded=1;whiteSpace=wrap;html=1;" vertex="1" parent="vZ2Ym8V51Z4fnAsbYTrX-40">
          <mxGeometry width="80" height="80" as="geometry" />
        </mxCell>
        <mxCell id="vZ2Ym8V51Z4fnAsbYTrX-42" value="&lt;font style=&quot;font-size: 24px;&quot;&gt;2&lt;/font&gt;" style="text;html=1;strokeColor=none;fillColor=none;align=center;verticalAlign=middle;whiteSpace=wrap;rounded=0;" vertex="1" parent="vZ2Ym8V51Z4fnAsbYTrX-40">
          <mxGeometry x="10" y="25" width="60" height="30" as="geometry" />
        </mxCell>
        <mxCell id="vZ2Ym8V51Z4fnAsbYTrX-46" value="" style="group" vertex="1" connectable="0" parent="1">
          <mxGeometry x="640" y="640" width="80" height="80" as="geometry" />
        </mxCell>
        <mxCell id="vZ2Ym8V51Z4fnAsbYTrX-47" value="" style="rounded=1;whiteSpace=wrap;html=1;" vertex="1" parent="vZ2Ym8V51Z4fnAsbYTrX-46">
          <mxGeometry width="80" height="80" as="geometry" />
        </mxCell>
        <mxCell id="vZ2Ym8V51Z4fnAsbYTrX-48" value="&lt;font style=&quot;font-size: 24px;&quot;&gt;3&lt;/font&gt;" style="text;html=1;strokeColor=none;fillColor=none;align=center;verticalAlign=middle;whiteSpace=wrap;rounded=0;" vertex="1" parent="vZ2Ym8V51Z4fnAsbYTrX-46">
          <mxGeometry x="10" y="25" width="60" height="30" as="geometry" />
        </mxCell>
        <mxCell id="vZ2Ym8V51Z4fnAsbYTrX-49" value="" style="group" vertex="1" connectable="0" parent="1">
          <mxGeometry x="880" y="640" width="80" height="80" as="geometry" />
        </mxCell>
        <mxCell id="vZ2Ym8V51Z4fnAsbYTrX-50" value="" style="rounded=1;whiteSpace=wrap;html=1;" vertex="1" parent="vZ2Ym8V51Z4fnAsbYTrX-49">
          <mxGeometry width="80" height="80" as="geometry" />
        </mxCell>
        <mxCell id="vZ2Ym8V51Z4fnAsbYTrX-51" value="&lt;font style=&quot;font-size: 24px;&quot;&gt;4&lt;/font&gt;" style="text;html=1;strokeColor=none;fillColor=none;align=center;verticalAlign=middle;whiteSpace=wrap;rounded=0;" vertex="1" parent="vZ2Ym8V51Z4fnAsbYTrX-49">
          <mxGeometry x="10" y="25" width="60" height="30" as="geometry" />
        </mxCell>
        <mxCell id="vZ2Ym8V51Z4fnAsbYTrX-55" style="rounded=0;orthogonalLoop=1;jettySize=auto;html=1;entryX=0.5;entryY=0;entryDx=0;entryDy=0;" edge="1" parent="1" source="vZ2Ym8V51Z4fnAsbYTrX-5" target="vZ2Ym8V51Z4fnAsbYTrX-50">
          <mxGeometry relative="1" as="geometry" />
        </mxCell>
        <mxCell id="vZ2Ym8V51Z4fnAsbYTrX-57" value="" style="group" vertex="1" connectable="0" parent="1">
          <mxGeometry x="400" y="320" width="160" height="80" as="geometry" />
        </mxCell>
        <mxCell id="vZ2Ym8V51Z4fnAsbYTrX-58" value="" style="rounded=1;whiteSpace=wrap;html=1;fillColor=#BFBFBF;fontColor=#333333;strokeColor=#666666;container=0;" vertex="1" parent="vZ2Ym8V51Z4fnAsbYTrX-57">
          <mxGeometry width="160" height="80" as="geometry" />
        </mxCell>
        <mxCell id="vZ2Ym8V51Z4fnAsbYTrX-59" value="" style="endArrow=none;html=1;rounded=0;entryX=0.5;entryY=0;entryDx=0;entryDy=0;exitX=0.5;exitY=1;exitDx=0;exitDy=0;fillColor=#f5f5f5;strokeColor=#666666;" edge="1" parent="vZ2Ym8V51Z4fnAsbYTrX-57" source="vZ2Ym8V51Z4fnAsbYTrX-58" target="vZ2Ym8V51Z4fnAsbYTrX-58">
          <mxGeometry width="50" height="50" relative="1" as="geometry">
            <mxPoint x="10" y="440" as="sourcePoint" />
            <mxPoint x="60" y="390" as="targetPoint" />
          </mxGeometry>
        </mxCell>
        <mxCell id="vZ2Ym8V51Z4fnAsbYTrX-60" value="" style="ellipse;whiteSpace=wrap;html=1;aspect=fixed;fillColor=#000000;container=0;" vertex="1" parent="vZ2Ym8V51Z4fnAsbYTrX-57">
          <mxGeometry x="36" y="35" width="10" height="10" as="geometry" />
        </mxCell>
        <mxCell id="vZ2Ym8V51Z4fnAsbYTrX-61" value="" style="ellipse;whiteSpace=wrap;html=1;aspect=fixed;fillColor=#000000;" vertex="1" parent="vZ2Ym8V51Z4fnAsbYTrX-57">
          <mxGeometry x="116" y="35" width="10" height="10" as="geometry" />
        </mxCell>
        <mxCell id="vZ2Ym8V51Z4fnAsbYTrX-64" style="rounded=0;orthogonalLoop=1;jettySize=auto;html=1;entryX=0.25;entryY=0;entryDx=0;entryDy=0;" edge="1" parent="1" source="vZ2Ym8V51Z4fnAsbYTrX-32" target="vZ2Ym8V51Z4fnAsbYTrX-58">
          <mxGeometry relative="1" as="geometry" />
        </mxCell>
        <mxCell id="vZ2Ym8V51Z4fnAsbYTrX-65" style="rounded=0;orthogonalLoop=1;jettySize=auto;html=1;entryX=0.5;entryY=0;entryDx=0;entryDy=0;" edge="1" parent="1" source="vZ2Ym8V51Z4fnAsbYTrX-60" target="vZ2Ym8V51Z4fnAsbYTrX-41">
          <mxGeometry relative="1" as="geometry" />
        </mxCell>
        <mxCell id="vZ2Ym8V51Z4fnAsbYTrX-67" style="edgeStyle=orthogonalEdgeStyle;rounded=0;orthogonalLoop=1;jettySize=auto;html=1;" edge="1" parent="1" source="vZ2Ym8V51Z4fnAsbYTrX-61" target="vZ2Ym8V51Z4fnAsbYTrX-20">
          <mxGeometry relative="1" as="geometry" />
        </mxCell>
        <mxCell id="vZ2Ym8V51Z4fnAsbYTrX-69" style="rounded=0;orthogonalLoop=1;jettySize=auto;html=1;entryX=0.25;entryY=0;entryDx=0;entryDy=0;" edge="1" parent="1" source="vZ2Ym8V51Z4fnAsbYTrX-22" target="vZ2Ym8V51Z4fnAsbYTrX-15">
          <mxGeometry relative="1" as="geometry" />
        </mxCell>
        <mxCell id="vZ2Ym8V51Z4fnAsbYTrX-70" style="rounded=0;orthogonalLoop=1;jettySize=auto;html=1;entryX=0.5;entryY=0;entryDx=0;entryDy=0;" edge="1" parent="1" source="vZ2Ym8V51Z4fnAsbYTrX-17" target="vZ2Ym8V51Z4fnAsbYTrX-47">
          <mxGeometry relative="1" as="geometry" />
        </mxCell>
        <mxCell id="vZ2Ym8V51Z4fnAsbYTrX-71" style="edgeStyle=orthogonalEdgeStyle;rounded=0;orthogonalLoop=1;jettySize=auto;html=1;" edge="1" parent="1" source="vZ2Ym8V51Z4fnAsbYTrX-18" target="vZ2Ym8V51Z4fnAsbYTrX-1">
          <mxGeometry relative="1" as="geometry" />
        </mxCell>
        <mxCell id="vZ2Ym8V51Z4fnAsbYTrX-74" style="edgeStyle=orthogonalEdgeStyle;rounded=0;orthogonalLoop=1;jettySize=auto;html=1;" edge="1" parent="1" source="vZ2Ym8V51Z4fnAsbYTrX-73">
          <mxGeometry relative="1" as="geometry">
            <mxPoint x="240" y="160" as="targetPoint" />
          </mxGeometry>
        </mxCell>
        <mxCell id="vZ2Ym8V51Z4fnAsbYTrX-73" value="(1 (2 (3 4)))" style="text;html=1;strokeColor=none;fillColor=none;align=center;verticalAlign=middle;whiteSpace=wrap;rounded=0;fontSize=20;" vertex="1" parent="1">
          <mxGeometry x="185" y="90" width="110" height="30" as="geometry" />
        </mxCell>
        <mxCell id="vZ2Ym8V51Z4fnAsbYTrX-76" style="edgeStyle=orthogonalEdgeStyle;rounded=0;orthogonalLoop=1;jettySize=auto;html=1;" edge="1" parent="1" source="vZ2Ym8V51Z4fnAsbYTrX-75" target="vZ2Ym8V51Z4fnAsbYTrX-58">
          <mxGeometry relative="1" as="geometry" />
        </mxCell>
        <mxCell id="vZ2Ym8V51Z4fnAsbYTrX-75" value="(2 (3 4))" style="text;html=1;strokeColor=none;fillColor=none;align=center;verticalAlign=middle;whiteSpace=wrap;rounded=0;fontSize=20;" vertex="1" parent="1">
          <mxGeometry x="280" y="345" width="81" height="30" as="geometry" />
        </mxCell>
        <mxCell id="vZ2Ym8V51Z4fnAsbYTrX-78" style="edgeStyle=orthogonalEdgeStyle;rounded=0;orthogonalLoop=1;jettySize=auto;html=1;" edge="1" parent="1" source="vZ2Ym8V51Z4fnAsbYTrX-77" target="vZ2Ym8V51Z4fnAsbYTrX-15">
          <mxGeometry relative="1" as="geometry" />
        </mxCell>
        <mxCell id="vZ2Ym8V51Z4fnAsbYTrX-77" value="(3 4)" style="text;html=1;strokeColor=none;fillColor=none;align=center;verticalAlign=middle;whiteSpace=wrap;rounded=0;fontSize=20;" vertex="1" parent="1">
          <mxGeometry x="534" y="505" width="50" height="30" as="geometry" />
        </mxCell>
      </root>
    </mxGraphModel>
  </diagram>
</mxfile>
